<svg width="17" height="17" viewBox="0 0 17 17" fill="none" xmlns="http://www.w3.org/2000/svg">
<path d="M17 1.50646C17 0.674437 16.3255 -5.47087e-05 15.4935 -5.59436e-05L1.93482 -6.12983e-05C1.10279 -6.19405e-05 0.428297 0.674429 0.428297 1.50646C0.428296 2.33848 1.10279 3.01298 1.93481 3.01298L13.987 3.01298L13.987 15.0651C13.987 15.8972 14.6615 16.5717 15.4935 16.5717C16.3255 16.5717 17 15.8972 17 15.0651L17 1.50646ZM1.06526 15.9347L2.13053 16.9999L16.5588 2.57173L15.4935 1.50646L14.4282 0.441194L-6.08454e-06 14.8694L1.06526 15.9347Z" fill="white"/>
</svg>
