<svg width="17" height="17" viewBox="0 0 17 17" fill="none" xmlns="http://www.w3.org/2000/svg">
<path d="M17 1.50646C17 0.674436 16.3255 -5.47087e-05 15.4935 -5.59435e-05L1.93483 -6.12983e-05C1.1028 -6.19405e-05 0.428312 0.674429 0.428312 1.50646C0.428311 2.33848 1.1028 3.01297 1.93483 3.01297L13.987 3.01298L13.987 15.0651C13.987 15.8971 14.6615 16.5716 15.4935 16.5716C16.3255 16.5716 17 15.8971 17 15.0651L17 1.50646ZM1.06528 15.9347L2.13055 16.9999L16.5588 2.57173L15.4935 1.50646L14.4282 0.441193L9.24056e-06 14.8694L1.06528 15.9347Z" fill="white"/>
</svg>
