<svg width="43" height="43" viewBox="0 0 43 43" fill="none" xmlns="http://www.w3.org/2000/svg">
<path d="M2.54917e-07 21.3759C2.55747e-07 11.2996 -0.000309085 6.26135 3.12994 3.13092C6.26041 0.000457745 11.3404 1.35233e-07 21.5 2.56385e-07C31.6596 3.77537e-07 36.7396 0.000458108 39.8701 3.13093C43.0003 6.26135 43 11.2996 43 21.3759C43 31.4526 43.0004 36.4915 39.8701 39.6219C36.7396 42.7524 31.6596 42.7529 21.5 42.7529C11.3404 42.7529 6.26041 42.7524 3.12994 39.6219C-0.000360316 36.4915 2.54917e-07 31.4526 2.54917e-07 21.3759ZM6.8201 20.5066C6.90335 21.1989 7.776 21.516 7.78891 21.5207L13.5506 23.4829L27.3867 14.5824C27.4017 14.5732 28.1825 14.095 28.1586 14.5824C28.1586 14.5824 28.3017 14.6708 27.8711 15.0747C27.4467 15.4787 17.2135 24.7948 17.0064 24.9834L17.0035 24.9864L16.9887 25.1114L16.9661 25.0947L16.2523 31.4825C16.3525 31.5207 16.461 31.5325 16.5673 31.518C16.6736 31.5034 16.7754 31.4626 16.8617 31.3988L20.5853 27.9627L26.3884 32.472C26.5751 32.5775 26.7823 32.6429 26.9959 32.662C27.2096 32.681 27.4264 32.6532 27.6289 32.5823C27.8316 32.5111 28.0182 32.397 28.1734 32.2485C28.3285 32.1 28.4509 31.92 28.5308 31.7208L32.6099 10.8873C32.6099 9.5041 30.7432 10.3285 30.7264 10.336L7.81845 19.4373C7.81845 19.4373 6.73246 19.814 6.8201 20.5066Z" fill="white"/>
</svg>
