<svg width="43" height="43" viewBox="0 0 43 43" fill="none" xmlns="http://www.w3.org/2000/svg">
<path d="M28.1068 0H14.9156C2.86661 0 0 2.86661 0 14.8932V28.0843C0 40.1332 2.84432 43 14.8932 43H28.0843C40.1333 43 43 40.1556 43 28.1067V14.9156C43 2.86661 40.1556 0 28.1068 0ZM34.7135 30.6822H31.5781C30.3912 30.6822 30.0328 29.7192 27.9052 27.5916C26.0463 25.8 25.2625 25.576 24.7922 25.576C24.1427 25.576 23.9635 25.7551 23.9635 26.651V29.4728C23.9635 30.2343 23.7172 30.6822 21.724 30.6822C19.7898 30.5522 17.9142 29.9647 16.2516 28.9679C14.589 27.9711 13.1869 26.5936 12.1609 24.9489C9.7252 21.9172 8.03047 18.359 7.2115 14.5572C7.2115 14.0869 7.39062 13.6614 8.2865 13.6614H11.4219C12.2281 13.6614 12.5193 14.0197 12.8328 14.8484C14.3557 19.3275 16.9537 23.2244 18.0062 23.2244C18.4094 23.2244 18.5885 23.0453 18.5885 22.0375V17.4239C18.4541 15.3187 17.3344 15.1395 17.3344 14.3781C17.3491 14.1772 17.4416 13.99 17.5921 13.8562C17.7426 13.7224 17.9394 13.6525 18.1406 13.6614H23.0677C23.7396 13.6614 23.9635 13.9973 23.9635 14.8035V21.0297C23.9635 21.7015 24.2547 21.9254 24.4562 21.9254C24.8593 21.9254 25.1728 21.7015 25.9119 20.9625C27.5001 19.0257 28.7977 16.868 29.764 14.5572C29.8627 14.2792 30.0496 14.0411 30.2963 13.8793C30.543 13.7175 30.8359 13.641 31.1302 13.6614H34.2656C35.2062 13.6614 35.4078 14.1317 35.2062 14.8035C34.0654 17.3584 32.6538 19.7836 30.9959 22.0375C30.6599 22.5525 30.5255 22.8213 30.9959 23.426C31.3093 23.8963 32.4068 24.8145 33.1458 25.6879C34.2208 26.7602 35.1134 28.0009 35.7885 29.3609C36.0572 30.2343 35.6093 30.6822 34.7135 30.6822Z" fill="white"/>
</svg>
